<svg viewBox="0 0 1920 1080" xmlns="http://www.w3.org/2000/svg" preserveAspectRatio="none" shape-rendering="geometricPrecision" text-rendering="geometricPrecision">
    <path fill="#FF0000" d="M41,-48.3C56.2,-45.3,73.7,-37.5,75,-26.1C76.4,-14.7,61.5,0.2,54.8,16.9C48.1,33.6,49.7,52,41.9,64.6C34.1,77.2,17.1,83.9,-0.3,84.3C-17.6,84.7,-35.3,78.8,-46.5,67.3C-57.7,55.9,-62.4,38.8,-68,22C-73.6,5.2,-80,-11.4,-77.9,-27.7C-75.9,-43.9,-65.4,-59.7,-51,-63C-36.6,-66.2,-18.3,-57,-2.7,-53.3C12.9,-49.5,25.7,-51.3,41,-48.3Z" transform="translate(100 100)" />
</svg>