<svg id="e9JAyDN7raC1" xmlns="http://www.w3.org/2000/svg" xmlns:xlink="http://www.w3.org/1999/xlink" viewBox="0 0 1980 1080" preserveAspectRatio="none" shape-rendering="geometricPrecision" text-rendering="geometricPrecision">
<style><![CDATA[
#e9JAyDN7raC3_to {animation: e9JAyDN7raC3_to__to 6300ms linear infinite normal forwards}@keyframes e9JAyDN7raC3_to__to { 0% {transform: translate(822.00599px,1153.885484px)} 26.984127% {transform: translate(822.00599px,1053.89px)} 53.968254% {transform: translate(822.00599px,853.89px)} 100% {transform: translate(822.00599px,1153.89px)}} #e9JAyDN7raC6_ts {animation: e9JAyDN7raC6_ts__ts 6300ms linear infinite normal forwards}@keyframes e9JAyDN7raC6_ts__ts { 0% {transform: translate(1149.940079px,1546.148002px) scale(1.009329,1)} 31.746032% {transform: translate(1149.940079px,1546.148002px) scale(1.02,1.05)} 66.666667% {transform: translate(1149.940079px,1546.148002px) scale(1.03,1.07)} 100% {transform: translate(1149.940079px,1546.148002px) scale(1.01,1)}}
]]></style>
<g transform="translate(2139.856445 71.816879)"><g id="e9JAyDN7raC3_to" transform="translate(822.00599,1153.885484)"><path d="M-1139.803984,-1345.738013c2.593423,173.390733,13.345536,1324.846716,14.419703,1499.364483c1.834947,298.120038-741.650374,75.772329-546.479223-202.059545c167.617577-199.763413,256.557739-395.121342-20.665181-518.925649-404.119089-151.544658-79.302437-665.701169,85.956854-757.570534" transform="translate(159.856445,71.816895)" fill="#ff1a1a"/></g></g><g transform="matrix(1.033891 0 0 1 43.26128 133.436876)"><path d="" transform="translate(988.796759 1493.15744)" fill="#092553"/><g id="e9JAyDN7raC6_ts" transform="translate(1149.940079,1546.148002) scale(1.009329,1)"><path d="M-1008.691367,-625.003522c-11.452778,125.833815,1.482405-1073.997702-.000002-1202.640041c334.865607-132.129926,68.966906,241.203948,178.575051,340.865297c96.33075,42.03757,211.927669,199.221526,7.005877,308.884752-68.510787,52.052407-102.686447,134.443959,40.283764,166.322559c351.157931,60.901351,263.248299,318.995422-122.528069,381.084272" transform="translate(-177.053589,140.747803)" fill="#092553"/></g></g></svg>
